<svg width="14" height="13" viewBox="0 0 14 13" fill="none" xmlns="http://www.w3.org/2000/svg">
<path d="M13.576 4.51714L9.5752 3.94058L7.78675 0.345269C7.73791 0.246832 7.65755 0.167144 7.55828 0.118707C7.30931 -0.00316805 7.00677 0.0983945 6.88229 0.345269L5.09385 3.94058L1.09309 4.51714C0.98279 4.53277 0.881943 4.58433 0.804733 4.66246C0.71139 4.75759 0.659954 4.88558 0.661726 5.0183C0.663499 5.15103 0.718336 5.27762 0.814187 5.37027L3.70879 8.16871L3.02492 12.1203C3.00889 12.2122 3.01915 12.3067 3.05454 12.3932C3.08993 12.4796 3.14903 12.5545 3.22515 12.6093C3.30127 12.6641 3.39135 12.6967 3.48519 12.7033C3.57903 12.71 3.67287 12.6904 3.75606 12.6468L7.33452 10.7812L10.913 12.6468C11.0107 12.6984 11.1241 12.7156 11.2329 12.6968C11.507 12.65 11.6914 12.3921 11.6441 12.1203L10.9603 8.16871L13.8549 5.37027C13.9336 5.29371 13.9856 5.19371 14.0014 5.08433C14.0439 4.81089 13.8517 4.55777 13.576 4.51714Z" fill="#FEA250"/>
</svg>
